<svg width="15" height="23" viewBox="0 0 15 23" fill="none" xmlns="http://www.w3.org/2000/svg">
<path d="M10.065 10.424C11.521 10.68 12.633 11.136 13.401 11.792C14.169 12.432 14.553 13.264 14.553 14.288V15.872C14.553 17.12 14.073 18.136 13.113 18.92C12.153 19.704 10.873 20.128 9.273 20.192V22.448H6.009V20.192C4.297 20.176 2.953 19.672 1.977 18.68C1.017 17.688 0.537 16.328 0.537 14.6H3.801C3.801 15.432 4.009 16.088 4.425 16.568C4.857 17.032 5.449 17.264 6.201 17.264H8.865C9.569 17.264 10.137 17.12 10.569 16.832C11.017 16.528 11.241 16.128 11.241 15.632V14.816C11.241 14.032 10.665 13.544 9.513 13.352L5.097 12.608C3.657 12.368 2.561 11.912 1.809 11.24C1.073 10.552 0.705 9.68 0.705 8.624V7.28C0.705 6.464 0.921 5.736 1.353 5.096C1.801 4.456 2.425 3.952 3.225 3.584C4.025 3.216 4.953 3.024 6.009 3.008V0.751999H9.273V3.008C10.777 3.088 11.977 3.592 12.873 4.52C13.785 5.448 14.241 6.664 14.241 8.168H10.977C10.977 7.496 10.793 6.96 10.425 6.56C10.057 6.144 9.569 5.936 8.961 5.936H6.249C5.577 5.936 5.033 6.08 4.617 6.368C4.217 6.656 4.017 7.04 4.017 7.52V8.168C4.017 8.968 4.569 9.464 5.673 9.656L10.065 10.424Z" fill="black"/>
</svg>
