<svg width="86" height="86" viewBox="0 0 86 86" fill="none" xmlns="http://www.w3.org/2000/svg">
<path fill-rule="evenodd" clip-rule="evenodd" d="M79 43C79 62.8823 62.8823 79 43 79C23.1177 79 7 62.8823 7 43C7 23.1177 23.1177 7 43 7C62.8823 7 79 23.1177 79 43ZM86 43C86 66.7482 66.7482 86 43 86C19.2518 86 0 66.7482 0 43C0 19.2518 19.2518 0 43 0C66.7482 0 86 19.2518 86 43ZM27.4749 22.5251C26.1081 21.1583 23.892 21.1583 22.5251 22.5251C21.1583 23.8919 21.1583 26.108 22.5251 27.4749L38.0503 43.0002L22.5255 58.5251C21.1586 59.892 21.1586 62.1081 22.5255 63.4749C23.8923 64.8417 26.1084 64.8417 27.4752 63.4749L43 47.9499L58.5248 63.4748C59.8916 64.8417 62.1077 64.8417 63.4745 63.4748C64.8414 62.108 64.8414 59.8919 63.4745 58.5251L47.9498 43.0002L63.4749 27.4749C64.8417 26.1081 64.8417 23.892 63.4749 22.5252C62.108 21.1583 59.8919 21.1583 58.5251 22.5252L43 38.0504L27.4749 22.5251Z" fill="#FF6D6D"/>
</svg>
