<svg width="24" height="24" viewBox="0 0 24 24" fill="none" xmlns="http://www.w3.org/2000/svg">
<path d="M19.2633 1.21833L14.2467 8.66667C14.1752 8.77393 14.145 8.90345 14.1617 9.03125C14.1783 9.15905 14.2407 9.2765 14.3373 9.36188C14.4338 9.44725 14.558 9.49477 14.6869 9.49565C14.8158 9.49653 14.9406 9.45071 15.0383 9.36667L19.9767 5.08333C20.0056 5.05744 20.0415 5.04054 20.0798 5.03468C20.1182 5.02882 20.1575 5.03427 20.1928 5.05035C20.2282 5.06643 20.2581 5.09245 20.2789 5.12524C20.2997 5.15803 20.3105 5.19617 20.31 5.235V18.645C20.31 18.6861 20.2973 18.7261 20.2738 18.7597C20.2502 18.7933 20.2169 18.8189 20.1783 18.8329C20.1397 18.8469 20.0977 18.8487 20.0581 18.8381C20.0184 18.8274 19.983 18.8048 19.9567 18.7733L5.03 0.905C4.78991 0.621492 4.49095 0.393675 4.15392 0.237389C3.81688 0.081102 3.44984 9.51572e-05 3.07833 8.83313e-08H2.55667C1.8786 8.83313e-08 1.2283 0.269362 0.74883 0.74883C0.269362 1.2283 0 1.8786 0 2.55667V21.4433C0 22.1214 0.269362 22.7717 0.74883 23.2512C1.2283 23.7306 1.8786 24 2.55667 24C2.99386 24.0001 3.42379 23.8882 3.80543 23.6749C4.18706 23.4616 4.50767 23.1541 4.73667 22.7817L9.75333 15.3333C9.82478 15.2261 9.85497 15.0966 9.83832 14.9688C9.82166 14.8409 9.75929 14.7235 9.66274 14.6381C9.56618 14.5527 9.44198 14.5052 9.3131 14.5043C9.18422 14.5035 9.05938 14.5493 8.96167 14.6333L4.02333 18.9167C3.99439 18.9426 3.95854 18.9595 3.92015 18.9653C3.88176 18.9712 3.8425 18.9657 3.80715 18.9497C3.77181 18.9336 3.74191 18.9075 3.72111 18.8748C3.7003 18.842 3.68949 18.8038 3.69 18.765V5.35167C3.69002 5.31061 3.70266 5.27056 3.72623 5.23694C3.74979 5.20332 3.78314 5.17777 3.82172 5.16376C3.86031 5.14974 3.90228 5.14794 3.94192 5.1586C3.98157 5.16926 4.01698 5.19186 4.04333 5.22333L18.9683 23.095C19.2084 23.3785 19.5074 23.6063 19.8444 23.7626C20.1815 23.9189 20.5485 23.9999 20.92 24H21.4417C21.7776 24.0002 22.1102 23.9343 22.4206 23.8059C22.731 23.6775 23.013 23.4892 23.2506 23.2518C23.4882 23.0143 23.6766 22.7324 23.8052 22.4221C23.9338 22.1118 24 21.7792 24 21.4433V2.55667C24 1.8786 23.7306 1.2283 23.2512 0.74883C22.7717 0.269362 22.1214 8.83313e-08 21.4433 8.83313e-08C21.0061 -0.000114783 20.5762 0.111811 20.1946 0.325096C19.8129 0.538381 19.4923 0.845908 19.2633 1.21833Z" fill="black"/>
</svg>
