<svg width="90" height="86" viewBox="0 0 90 86" fill="none" xmlns="http://www.w3.org/2000/svg">
<path fill-rule="evenodd" clip-rule="evenodd" d="M79 43C79 62.8823 62.8823 79 43 79C23.1177 79 7 62.8823 7 43C7 23.1177 23.1177 7 43 7C55.3644 7 66.2729 13.2333 72.7545 22.7289L38.8987 57.9495L27.5233 46.1155C26.1837 44.7219 23.9681 44.6781 22.5745 46.0177C21.1809 47.3573 21.1372 49.5729 22.4767 50.9665L36.3755 65.4255L38.8987 68.0505L41.422 65.4255L76.2552 29.1881C78.0237 33.4413 79 38.1066 79 43ZM81.4684 23.7648C84.3681 29.5526 86 36.0857 86 43C86 66.7482 66.7482 86 43 86C19.2518 86 0 66.7482 0 43C0 19.2518 19.2518 0 43 0C57.2428 0 69.8683 6.92466 77.6934 17.591L83.4767 11.5745C84.8163 10.1809 87.0319 10.1372 88.4255 11.4767C89.8191 12.8163 89.8628 15.0319 88.5233 16.4255L81.4684 23.7648Z" fill="#90E8E2"/>
</svg>
