<svg width="52" height="59" viewBox="0 0 52 59" fill="none" xmlns="http://www.w3.org/2000/svg">
<path d="M-4.83423e-05 58.7027L52 32.5598L52 26.1429L-4.57764e-05 -2.27299e-06L-4.64205e-05 14.7351L7.36069 11.1702L7.36069 25.9053L-4.67529e-05 22.3403L-4.7397e-05 37.0754L7.36069 33.5105L7.36069 48.2456L-4.77294e-05 44.6806L-4.83423e-05 58.7027ZM14.7214 29.2325C14.7214 24.2416 18.758 19.9637 23.9817 19.9637C28.968 19.9637 33.242 24.004 33.242 29.2325C33.242 34.4611 29.2055 38.5014 23.9817 38.5014C18.758 38.5014 14.7214 34.4611 14.7214 29.2325Z" fill="black"/>
</svg>
